<?xml version="1.0" standalone="no"?>
<!DOCTYPE svg PUBLIC "-//W3C//DTD SVG 20010904//EN"
 "http://www.w3.org/TR/2001/REC-SVG-20010904/DTD/svg10.dtd">
<svg version="1.0" xmlns="http://www.w3.org/2000/svg"
 width="128.000000pt" height="128.000000pt" viewBox="0 0 128.000000 128.000000"
 preserveAspectRatio="xMidYMid meet">

<g transform="translate(0.000000,128.000000) scale(0.100000,-0.100000)"
fill="#000000" stroke="none">
<path d="M431 914 c-26 -33 -27 -74 -2 -105 10 -13 62 -55 115 -94 52 -38 96
-73 96 -77 0 -4 -42 -35 -92 -69 -127 -84 -148 -105 -148 -146 0 -45 37 -83
82 -83 31 0 136 63 165 100 9 10 12 69 13 193 0 205 -1 210 -82 270 -64 47
-116 51 -147 11z"/>
</g>
</svg>
